<?xml version="1.0" encoding="utf-8"?>
<!-- Generator: Adobe Illustrator 25.2.0, SVG Export Plug-In . SVG Version: 6.00 Build 0)  -->
<svg version="1.1" id="Layer_1" xmlns="http://www.w3.org/2000/svg" xmlns:xlink="http://www.w3.org/1999/xlink" x="0px" y="0px"
	 viewBox="0 0 141 64" style="enable-background:new 0 0 141 64;" xml:space="preserve">
<style type="text/css">
	.st0{fill:#FFFFFF;}
	.st1{fill:#D0DC68;}
	.st2{fill:#143524;}
</style>
<g>
	<path class="st0" d="M39.01,28.74c-4.85,1.44-9.31,4.38-12.62,8.71c-5.44,7.12-6.44,16.24-3.42,24.03
		c-1.06,0.69-2.17,1.33-3.31,1.9C8.11,57.56,0.19,45.6,0.19,31.78c0-13.81,7.92-25.77,19.47-31.59
		C30.35,5.57,37.94,16.23,39.01,28.74z"/>
	<path class="st1" d="M39.14,31.78c0,12.46-6.44,23.4-16.17,29.7c-3.02-7.79-2.02-16.91,3.42-24.03c3.31-4.33,7.77-7.27,12.62-8.71
		C39.1,29.74,39.14,30.76,39.14,31.78z"/>
	<path class="st2" d="M48.12,54.05c-5.89,7.71-15.41,11.01-24.33,9.33c-0.3-0.62-0.58-1.25-0.82-1.9
		c9.73-6.3,16.17-17.24,16.17-29.7c0-1.02-0.04-2.04-0.13-3.04c3.78-1.13,7.8-1.35,11.71-0.61C54.69,36.29,54.01,46.35,48.12,54.05z
		"/>
	<g>
		<path class="st0" d="M91.58,45.11v4.83h-19.4V19.33h5.22v25.78H91.58z"/>
		<path class="st0" d="M104.82,50.45c-3.45,0-6.24-1.13-8.38-3.41c-2.14-2.27-3.21-5.03-3.21-8.28c0-3.25,1.07-6.01,3.21-8.3
			c2.14-2.28,4.94-3.43,8.38-3.43c3.48,0,6.29,1.14,8.43,3.43c2.14,2.29,3.21,5.05,3.21,8.3c0,3.25-1.07,6.01-3.21,8.28
			C111.1,49.32,108.29,50.45,104.82,50.45z M98.35,38.77c0,2.13,0.61,3.85,1.83,5.17c1.22,1.32,2.77,1.98,4.63,1.98
			c1.9,0,3.46-0.66,4.68-1.98c1.22-1.32,1.83-3.05,1.83-5.17c0-2.16-0.61-3.89-1.83-5.22c-1.22-1.32-2.78-1.98-4.68-1.98
			c-1.87,0-3.41,0.66-4.63,1.98C98.96,34.87,98.35,36.61,98.35,38.77z"/>
		<path class="st0" d="M122.27,27.56v-2.37c0-2.53,0.65-4.43,1.94-5.69c1.29-1.26,3.06-1.9,5.3-1.9l1.72,0.13v4.53
			c-0.17-0.06-0.49-0.09-0.95-0.09c-1.03,0-1.77,0.25-2.22,0.75c-0.45,0.5-0.67,1.36-0.67,2.57v2.07h3.97v4.09h-3.97v18.28h-5.13
			V31.66h-3.58v-4.09H122.27z M137.62,23.81c-0.95,0-1.72-0.29-2.33-0.88c-0.6-0.59-0.91-1.34-0.91-2.26c0-0.95,0.3-1.72,0.91-2.33
			s1.38-0.91,2.33-0.91c0.92,0,1.68,0.3,2.28,0.91s0.91,1.38,0.91,2.33c0,0.92-0.3,1.67-0.91,2.26
			C139.3,23.52,138.54,23.81,137.62,23.81z M135.03,49.93V27.56h5.13v22.37H135.03z"/>
	</g>
</g>
</svg>
