<?xml version="1.0" encoding="utf-8"?>
<!-- Generator: Adobe Illustrator 25.2.0, SVG Export Plug-In . SVG Version: 6.00 Build 0)  -->
<svg version="1.1" id="Layer_1" xmlns="http://www.w3.org/2000/svg" xmlns:xlink="http://www.w3.org/1999/xlink" x="0px" y="0px"
	 viewBox="0 0 141 64" style="enable-background:new 0 0 141 64;" xml:space="preserve">
<style type="text/css">
	.st0{fill:#143524;}
	.st1{fill:#D0DC68;}
</style>
<path class="st0" d="M39,28.7c-4.8,1.4-9.3,4.4-12.6,8.7c-5.4,7.1-6.4,16.2-3.4,24c-1.1,0.7-2.2,1.3-3.3,1.9
	C8.1,57.6,0.2,45.6,0.2,31.8C0.2,18,8.1,6,19.7,0.2C30.4,5.6,37.9,16.2,39,28.7z"/>
<path class="st1" d="M39.1,31.8c0,12.5-6.4,23.4-16.2,29.7c-3-7.8-2-16.9,3.4-24c3.3-4.3,7.8-7.3,12.6-8.7
	C39.1,29.7,39.1,30.8,39.1,31.8z"/>
<path class="st0" d="M48.1,54c-5.9,7.7-15.4,11-24.3,9.3c-0.3-0.6-0.6-1.2-0.8-1.9c9.7-6.3,16.2-17.2,16.2-29.7c0-1,0-2-0.1-3
	c3.8-1.1,7.8-1.4,11.7-0.6C54.7,36.3,54,46.3,48.1,54z"/>
<g>
	<path class="st0" d="M91.6,45.1v4.8H72.2V19.3h5.2v25.8H91.6z"/>
	<path class="st0" d="M104.8,50.4c-3.4,0-6.2-1.1-8.4-3.4c-2.1-2.3-3.2-5-3.2-8.3s1.1-6,3.2-8.3c2.1-2.3,4.9-3.4,8.4-3.4
		c3.5,0,6.3,1.1,8.4,3.4s3.2,5,3.2,8.3s-1.1,6-3.2,8.3C111.1,49.3,108.3,50.4,104.8,50.4z M98.3,38.8c0,2.1,0.6,3.8,1.8,5.2
		c1.2,1.3,2.8,2,4.6,2c1.9,0,3.5-0.7,4.7-2s1.8-3,1.8-5.2c0-2.2-0.6-3.9-1.8-5.2c-1.2-1.3-2.8-2-4.7-2c-1.9,0-3.4,0.7-4.6,2
		C99,34.9,98.3,36.6,98.3,38.8z"/>
	<path class="st0" d="M122.3,27.6v-2.4c0-2.5,0.7-4.4,1.9-5.7s3.1-1.9,5.3-1.9l1.7,0.1v4.5c-0.2-0.1-0.5-0.1-0.9-0.1
		c-1,0-1.8,0.2-2.2,0.8s-0.7,1.4-0.7,2.6v2.1h4v4.1h-4v18.3h-5.1V31.7h-3.6v-4.1L122.3,27.6L122.3,27.6z M137.6,23.8
		c-0.9,0-1.7-0.3-2.3-0.9c-0.6-0.6-0.9-1.3-0.9-2.3c0-1,0.3-1.7,0.9-2.3s1.4-0.9,2.3-0.9c0.9,0,1.7,0.3,2.3,0.9s0.9,1.4,0.9,2.3
		c0,0.9-0.3,1.7-0.9,2.3C139.3,23.5,138.5,23.8,137.6,23.8z M135,49.9V27.6h5.1v22.4H135z"/>
</g>
</svg>
